# xmcd CD database file
#
# Track frame offsets:
#	150
#	8934
#	14876
#	26906
#	38400
#	50277
#	60963
#	75842
#	92707
#	112887
#	121490
#	130302
#	141803
#	157267
#	175776
#	189032
#	194696
#	206691
#	213093
#	224447
#	241974
#
# Disc length: 3488 seconds
#
# Revision: 0
# Processed by: cddbd v1.5.2PL0 Copyright (c) Steve Scherf et al.
# Submitted via: CDex 1.70beta2
#
DISCID=1f0d9e15
DTITLE=DJ 1st Class Presents - Salsa Duro
DYEAR=1900
DGENRE=Salsa
TTITLE0=In the Club Blend - 50 Cent VS Sala
TTITLE1=Saoco Blend - Wisin y Yandel
TTITLE2=Yay Boy - Africanos
TTITLE3=Uh oh Blend - Lumidee Vs Salsa
TTITLE4=Lo que te qeda - Tito Rojas
TTITLE5=Lean back blend Vs Salsa
TTITLE6=Lloraras - Oscar de Leon
TTITLE7=Navidad en Pr - Oscar de Leon
TTITLE8=Dejame sonar - tony vega Ft Tito Puente
TTITLE9=Me libere - Gran Combo
TTITLE10=Agarro Bajando - Gilberto Santa Rosa
TTITLE11=El Rebellion /Joy Arroyo
TTITLE12=Cachondea El Fruko 
TTITLE13=Hasta que te enamoras - F. Negron
TTITLE14=Mi Libertad - J Rivera F Voltio
TTITLE15=Hasta abajo blend - Baby Rasta y grino Ft Divino
TTITLE16=Quiero ser tuyo - Tito Rojas 
TTITLE17=Bailando - F Ruiz
TTITLE18=Quitameno la ropa - Grupo N2G
TTITLE19=Han Cojido la cosa - Gran Combo
TTITLE20=Mikaela - El Fruko
EXTD=
EXTT0=
EXTT1=
EXTT2=
EXTT3=
EXTT4=
EXTT5=
EXTT6=
EXTT7=
EXTT8=
EXTT9=
EXTT10=
EXTT11=
EXTT12=
EXTT13=
EXTT14=
EXTT15=
EXTT16=
EXTT17=
EXTT18=
EXTT19=
EXTT20=
PLAYORDER=
